<?xml version="1.0" encoding="utf-8"?>
<!-- Generator: Adobe Illustrator 25.2.1, SVG Export Plug-In . SVG Version: 6.00 Build 0)  -->
<svg version="1.1" id="Camada_1" xmlns="http://www.w3.org/2000/svg" xmlns:xlink="http://www.w3.org/1999/xlink" x="0px" y="0px"
	 viewBox="0 0 845.5 182.4" style="enable-background:new 0 0 845.5 182.4;" xml:space="preserve">
<style type="text/css">
	.st0{fill:#253A47;}
</style>
<path class="st0" d="M376.7,127.3l-0.4,0L376,128l0.5,0l0.1-0.1L376.7,127.3z M393.5,131.2L393.5,131.2l-0.2,0.5
	c0,0,0.3,0.5,0.3,0.7l0.5,0l0-0.7C394,131.7,394,131.2,393.5,131.2z M407.4,42.3L407.4,42.3c0,0,0.9,0.5,1,2.6l0.1,4.6
	c0,0,0,0.5-0.4,1.2l0.4,0l0,1.6c0,0,0,0.2,0.3,0.2c0,0-0.2,0.5-0.2,0.7l-0.4,0.8c0,0,0.6,0.9,0.6,1.4c0,0,0,0.7-0.2,1.2
	c0,0,0,1.1,0.3,1.5c0,0-0.2,8.1-0.2,12.7l0,10.5c0,0,0,0.2,0.3,0.2l-0.2,0.5c0,0,0,1.2,0.3,3.9c0,0,0,0.9-0.2,1.2
	c0,0,0.3,8.2,0.5,8.6c0,0-0.2,1.7-0.2,2.9l0,11.1c0,0,0,5.2,0.3,13c0,0,0,5.4-4.5,11.8c0,0-6,6.8-16.1,6.8c0,0-10.6,0-17.1-8.9
	c0,0-2.9-4.6-3.4-11.4c0,0,0.2-21.7,0.2-30.5c0,0,0-4.4-0.3-15.7c0,0,0-0.4,0.2-0.9c0,0-0.3-2.6-0.3-4.1l0-16.6c0,0,0-0.2-0.3-0.2
	l0.2-0.5l0-2.1c0,0,0-0.2-0.3-0.2l0.2-0.5c0,0-0.3-2.6-0.3-3.9c0,0,0-3.1,2.9-3.1l7.7,0c0,0,2.9,0,2.9,3.1l0,0.2
	c0,0,0,11.6,0.3,17.9c0,0-0.2,5.6-0.2,16.6l0.2,0c0,0-0.2,1.9-0.5,1.9l0.3,1.7c0,0,0.3,17.4,0.3,19.2c0,0-0.5,1.7-0.5,2.1
	c0,0,0,21.6,2.6,21.6c0,0,1.3,1.7,4.6,1.7l0.9,0c0,0,4.5,0,6.1-4.4l0.6-3.4c0,0-0.3-10.9-0.3-18l0-2.6c0,0,0-2-0.4-4.9l0.4-0.5
	c0,0-0.4-3.4-0.4-5.5l0-1c0,0,0-3.1,0.6-11.5c0,0,0.2-26.4,0.2-32.5c0,0,0-2.2,4.6-2.3C400.7,42.5,402.2,42.5,407.4,42.3z
	 M351.8,46.3l-0.1-0.4l-0.2,0.3l-0.1,0.3l0,0.1l0.1,0.2l0.2-0.1l0.1-0.1L351.8,46.3z M329.1,42.6L329.1,42.6l10.7,0
	c0,0,0.9,0,1.9,0.7l1,0c0,0,1.4,0,1.4-0.5c0,0,0.2,0,0.3,0.2c0,0,2.6-0.3,3.9-0.3l8.2,0c0,0,3.4,0,3.4,3.9l-0.4,1.9
	c0,0,0.4,0.5,0.4,0.7c0,0,0,0.7-0.9,0.8l0,0.7l0.9,1l0,0.2c0,0,0,2.6-2.9,2.6l-3.4,0c0,0-0.2,0-0.2,0.3c0,0-0.4,0-0.4-0.2
	c0,0-1.2,0-3,0.3c0,0-5-0.2-9.5-0.2l0-0.2c0,0-0.5,0.3-1.4,0.3l0,2.6c0,0,0,1.7-0.2,2c0,0,0.3,1.7,0.3,2.9l0,5.6c0,0,0,1-0.2,2.9
	c0,0,0.3,0.4,0.3,1c0,0,0,0.6-0.2,1c0,0,0.3,1.9,0.3,2.9l0,3.4c0,0,0,0.2-0.2,0.3c0,0,0.4,3.1,0.8,3.9c0,0-0.5,0.1-0.5,0.8l0,0.5
	l1.6,0c0,0,0-1.5,0.7-1.5c0,0,2.9,0,5.2,0.2c0,0,2.6-0.3,4.5-0.3c0,0,4.4,0,4.4,3.5l0,6.2c0,0,0,2.9-2.6,2.9l-12.7,0
	c0,0-0.4,0-0.4-0.2c0,0-0.5,0.3-0.7,0.3c0,0,0,1.5,0.3,6.4c0,0,0,1.6-0.2,3.9c0,0,0.3,4.1,0.3,8.4l0,1c0,0,0,1.2-0.2,3
	c0,0,0.5,1.4,0.5,5.5l0,1c0,0,0,0.2,0.3,0.2l-0.2,0.5l0,1.9c0,0,0.1,0.5,0.6,0.5l17.7,0c0,0,2.9,0,2.9,3.1c0,0,0,1.1-0.2,1.7
	c0,0,0.3,1.7,0.3,2.7l0,2.1c0,0,0,2.4-4.7,2.4c0,0-1.6,0-6.1,0.5c0,0-0.7,0-0.8-0.2c0,0-3.5,0.3-5.1,0.3l-6.7,0c0,0-2.4,0-5.4,0.3
	c0,0-5.7,0-5.8-2.9c0,0,0-9.5,0.2-9.5c0,0-0.5-0.9-0.5-1.5l0-22.2l0.2-1.2c0,0,0-0.7-0.5-1.6c0,0,0.2-3.7,0.2-6.4l0-0.7l0.7-1l0-0.6
	c0,0,0-0.5-0.5-0.5l0.2-1.2l0-0.2c0,0-0.8-1-0.8-2.4l0-1.2c0,0,0-1.1,0.5-2.1c0,0-0.5-1-0.5-3l0-0.2c0,0,0-0.9,0.2-2.4
	c0,0-0.5-0.9-0.5-2l0-16c0,0,0-1.1-0.3-2.9l0.2-0.5c0,0-0.3-4.4-0.3-6.7l0-3.2c0,0,0-1.4,0.7-1.4l0-0.2c0,0-0.7,0-0.8-1.2l0-0.2
	C325.2,45,325.2,42.6,329.1,42.6z M261,137.1l0.4,0l0-0.2l-0.4,0L261,137.1z M313.9,92.1L313.9,92.1c0,0,0,0.2,0.3,0.7
	c0,0-0.1,0.4-0.2,0.6l0,4.5c0,0,0,0.5-0.5,0.5l0.3,2.6c0,0,0,0.2,0.4,6.1c0,0,0.4,5.8,0.4,9.8l-0.2,9.6c0,0,0,0.5,0.3,1
	c0,0-0.2,0.5-0.2,1.4c0,0,0.5,2.7,0.5,3.6l0,1.1c0,0,0,1.1-0.2,2.9c0,0,0.3,0.5,0.3,1.4c0,0,0,2.1-3.1,2.1l-1.9-0.2
	c0,0-1,0.5-2.1,0.5l-1.2,0c0,0-4,0-4-3.2l0-3.4c0,0,0.1-1.9,0.5-1.9l-0.5-1.4c0,0,0-2.6-0.1-3.8c0,0-0.1-1.2-0.1-3.3l0-3.4
	c0,0,0-0.9,0.2-0.9l-0.3-1.2l0-16.2c0,0,0.5-2.5,0.5-2.9c0,0-0.5,0-0.5-0.5l0-6.4c0,0,0-0.6-0.3-1.1c0,0,0.5-1,0.5-1.5
	c0,0-0.5-0.9-0.5-1.6l0-4c0,0,0-1.2,1-1.6c0,0-0.5-2.2-0.5-2.9l0.2-0.5c0,0-0.8-1.5-0.8-3.2l0.2-6l-0.2,0l-2.4,10c0,0,0,0.6-1.1,0.6
	l0,0.2c0,0,1.1,0,1.1,1c0,0-2.5,14.2-3.7,20.1l0.2,0c0,0-1.2,3.5-3.5,18.9c0,0-1.2,5.7-1.7,5.7c0,0,0,0.4,0.3,0.9
	c0,0-0.2,1.9-0.6,2.4l-0.2,3.4c0,0-0.5,3.7-0.5,4c0,0-0.6,3.7-2.9,3.8l-0.5,0c0,0-1.1,0-3-0.2c0,0-0.5,0.3-0.7,0.3
	c0,0-2.5,0-2.9-6.1l-0.9-3.4c0,0-1.9-8.1-1.9-10.4l-1.5-6.9c0,0-0.9-5.9-4.3-22l0-1.1c0,0-2.1-8.7-3-15.4l-0.5-1.7l0.2-0.6l0-1.5
	l-1,0l0-0.4l0.5-0.8c0,0,0-0.5-0.5-0.5l-0.2,0c0,0,0,0.4-0.6,2.4c0,0,0,0.5,0.6,1.6c0,0,0,0.7-0.2,0.7c0,0,0.3,4.4,0.3,6.6l0,9.5
	c0,0,0,1.1-0.2,3c0,0,0.3,0.4,0.3,6.4c0,0,0,8.7,0.3,23.5c0,0-0.2,1-0.2,3l0,12.1c0,0-0.4,1.4-2.6,1.9l-4,0.3c0,0-1.1-0.5-1.9-0.5
	l-1.9,0.3c0,0-1.4,0-1.6-4c0,0,0-0.2,0.5-2.9c0,0-0.2,0-0.8-0.2c0,0,0-0.4,0.2-0.9c0,0,0-0.7-0.3-0.7l0.2-3.2l0-2c0,0,0-1.4-0.3-2.7
	c0,0,0.2-2.9,0.7-2.9c0,0-0.8-4.1-0.8-9.5l0-12.2l0.5-0.8l-0.8-5.4l0-12.9c0,0,0.1-1.9,0.5-1.9c0,0-0.3-0.9-0.5-0.9
	c0,0,0-0.2,0.2-0.8c0,0-0.3-6.9-0.3-9.2c0,0,0-1.4,0.2-2.4c0,0-0.3-2.4-0.3-4l0-5.9c0,0,0-1.6,0.2-3.4c0,0-0.3-1-0.3-3l0-0.7
	l0.5-0.8c0,0-0.5-0.7-0.5-1.1l0.5-2.9c0,0,0.4-1.4,3.7-1.4l0.2,0c0,0,1.4,0.1,1.4,0.5c0,0,0.5-0.3,0.7-0.3l0.6,0.2
	c0,0,0.7-0.5,1.5-0.5l1,0c0,0,0.6,0.1,0.6,0.5l1.2-0.3l0.9,0c0,0,1.5-0.3,2.1-0.3c0,0,3.9,0,3.9,7.7c0,0,0.9,1.5,3.3,15.6l-0.2,1.2
	c0,0,0.9,0.2,1.3,5.4l-0.5,0.3c0,0,2.9,6.9,2.9,13.2l-0.5,0.3c0,0,2,3.4,3.5,13.5c0,0,0.2,0,2.1,10.1l0.5,0l2.4-12
	c0,0,2-14.2,2.9-14.2l0-2.4c0,0,0.9-1.8,2.1-2.4l-1-0.2l0-0.6c0,0,0.5-4.4,2.9-13.9c0,0-0.4-0.5-0.8-1.2c0,0,0.2-0.4,0.2-1
	c0,0,0.5,0,0.5,0.7l0.5,0l0-0.7l-0.7,0l0-1l0.5-0.9l0-0.2c0,0,0-0.2-0.3-0.2c0,0,0.4-1.1,0.7-1.1l0.4-2.6l0-0.2
	c0,0,1.5-12.5,2.4-12.5c0,0,0.9-0.5,1.5-0.5l7.7,0c0,0,5,0.5,5.9,0.5l0,0.6l0.4,1.6l0.6,1.5c0,0,0,1.1,0.3,1.1l-0.2,0.5
	c0,0,0.5,3,0.5,4.5c0,0,0,0.2-0.2,2.1c0,0,0.3,0.5,0.3,0.7l-0.2,1.1l0.3,1.2c0,0-0.1,3.7-1,4.2l0,0.2c0,0,0.7,0,0.8,0.6l0,0.2
	c0,0,0,0.5-0.5,0.5l0.5,4.2l0,3.4l-0.2,1.6c0,0,0.3,0.5,0.3,1.4l0,16.1c0,0,0,0.6,0.3,1.1C314.1,91.1,313.9,91.5,313.9,92.1z"/>
<path class="st0" d="M841.6,106.6L841.6,106.6l0.5,0.2l0.2,0l0-0.9l-0.2,0C842.1,106,841.6,106.1,841.6,106.6z M828.6,52.7l-2.1-0.2
	c0,0-0.5,0-0.5-0.5c0,0-6.4,0-8.5,3.1c0,0-1.1,2.4-1.1,6.9l0.2,0c0,0,0,1.7-1.7,4c0,0,1.2,0,1.5,1.9c0,0,0,0.5-0.2,0.5
	c0,0,0.3,5,0.3,7.2l0,7.9c0,0,0,1.1,0.3,3c0,0-0.2,0.3-0.2,2l0.2,0l-0.2,0.6c0,0,0.3,2.9,0.3,5c0,0,0,1-1.5,2.4l0,0.2
	c0,0,1.8,1.6,1.8,4.7l-0.2,1.6c0,0,0.6,1.7,0.6,2.4l0,15.6c0,0,0,4.4,2.1,5.8c0,0,2.1,1.4,5.8,1.4c0,0,2,0,3.5-0.6
	c0,0,3.1-1.8,3.1-5l-0.5-38.4l0.2-1.4c0,0-0.5-2.7-0.5-9.7l0-3.5c0,0,0-0.6-0.3-1.1c0,0,0-0.2,0.2-0.3c0,0-0.3-3.1-0.3-4.5l0-3.9
	c0,0,0-3.9-2.4-7.2L828.6,52.7z M826.2,40.4L826.2,40.4l0.7,0c0,0,5.4,1.2,9,2.6c0,0,7.4,6.6,7.4,11.9c0,0,0,0.5-0.5,0.5
	c0,0-0.5-0.2-0.7-0.2l0,0.2c0,0,2.1,1,2.1,3.5c0,0,0.3,2.5,0.3,5l0,4c0,0,0,1.4-0.5,3.2c0,0,0.3,0.4,0.3,1l-0.2,0
	c0,0,0.8,1.1,0.8,10.9l0,2.1l0.3,3.1c0,0-0.4,0-0.7,0.9c0,0,1,0.9,1,5.5l0,12.5c0,0,0,2.6,0.3,6.6c0,0-0.2,0.8-0.2,3.1
	c0,0,0.3,3.4,0.3,3.5c0,0-1.5,10.4-3.1,10.4c0,0-4,9.8-18.2,9.8l-0.6,0c0,0-7.2,0-11.4-3.5l0,0.4c0,0-1.9,0-6.4-6.4
	c0,0-2.4-4-2.4-10.6l-0.2,0c0,0,0.2-0.5,0.2-0.7c0,0,0-1.4-0.3-5.4c0,0,0.2-1.5,0.2-2.1l-0.2,0c0,0,0-0.2,0.2-0.3l-0.3-3.1l0-0.4
	c0,0,0-1.6,0.2-3.4c0,0-0.5-4.9-0.8-5.6c0,0,0.5-1.4,0.5-5.5l0-14.4l0.2-0.5l0.6,0.2l0.5,0l0-0.7c0,0-1.6-0.7-1.6-6.4l0-1
	c0,0,0-1,0.2-1.4c0,0-0.3-1.9-0.3-2.9l0-0.6c0,0,0-17.9,7.7-22.2C810.6,44,813.6,40.8,826.2,40.4z M785.3,58.9l-0.3-0.6l-0.3-0.2
	l-0.7,0.8l0.3,0.2l0.2-0.3L785.3,58.9z M788.8,54.9l0.2-0.5l0.4-0.8l-1.1,0.3l-0.2-0.1l0,0.4L788.8,54.9z M785.3,41.7l1.5,0l3.2,0.2
	l0.5-0.3c0,0,2.1,0.6,2.1,3.2l0,2.4c0,0,0,1.7-0.2,3.1c0,0,0.3,1.4,0.3,3.2l0,1l-0.2,1.6c0,0,0.3,0.5,0.3,0.7l-0.2,1.4
	c0,0,0.5,2.9,0.5,6.6l0,8c0,0,0,0.6-0.5,1.5c0,0,0.5,1.7,0.5,2.4l0,1.9c0,0,0,0.6-0.5,2.4c0,0,0.5,0.9,0.5,1.6l0,7.6
	c0,0,0,1-0.7,2.7c0,0,0.5,0.9,0.5,1.5l0,0.2c0,0,0,0.4-0.2,0.4l0.3,0.5l0,8.2c0,0,0,1.4-0.7,2.4c0,0,0.5,0.9,0.5,1.5l0,8
	c0,0,0,1.1-0.2,2.9c0,0,0.3,0.5,0.3,1.1c0,0-0.6,2.1-0.9,2.1c0,0,0.4,0.7,0.6,0.7c0,0,0,0.2-0.2,0.3l0.3,3.2l0,3.9
	c0,0,0,1.1-0.2,2.1c0,0,0.3,1.1,0.3,2.1l0,3c0,0,0,2.9-3.7,2.9c0,0-1.5,0-2.9-2.1l-0.6,0l0,0.5l0.6,0.9l0,0.5l-1.9,0.3l-1.6,0
	c0,0-3.1,0-3.1-1.9l-0.3-1.6c0,0,0-0.1,0.2-1.5l-0.3-1.1l0.2-1c0,0-0.3-1.5-0.3-2.1c0,0,0.5-1.6,0.7-1.6l-0.8-4c0,0,0-1.7,1-2.9
	c0,0-1-0.4-1-0.7l0-1.4c0,0,0-1.4,0.5-1.4l-0.3-0.5l0-1l0.2-1.6c0,0-0.5-1.4-0.5-1.9c0,0,0.2-1.9,0.2-3.1l-0.3-1.1
	c0,0,0.2-0.4,0.2-1.2c0,0,0-0.4-0.3-0.4l0.2-0.5l0-4.7c0,0,0-0.9,0.2-1.4l-0.5-4.7c0,0,0.2-0.4,0.2-1.2l-0.3-1.1
	c0,0,0.5-0.9,0.5-1.5l-0.3-2.7c0,0,0.2-1,0.2-1.9l-0.2,0l0.2-0.5l0-7.6c0,0,0-1.1-0.3-2.1c0,0,0.2-4,0.7-5.4c0,0-0.5-0.9-0.5-1.5
	l0-0.9c0,0,0-1.2,0.2-2.6c0,0-0.3-1-0.3-2.1c0,0,0-1.7,0.7-2.9l0-0.9l-0.7,0l0-0.5c0,0,0.6,0,1-1l0-0.5c0,0,0-0.6-0.5-0.6l-0.5,0.3
	l-0.3-0.5l0-4.5c0,0,0-1.1,0.2-2.9c0,0-0.3-0.5-0.3-1.4l0.2,0l-0.3-0.5l0-0.2l0.2-1.6l-0.3-0.5l0.5-1.6c0,0-0.5-0.9-0.5-1.2
	C778.9,44.4,778.9,41.7,785.3,41.7z M740.4,133.4L740.4,133.4l0,0.5c0,0,0.1,0.6,0.5,0.6l0.2,0l0-0.4
	C741.2,134.2,741.2,133.8,740.4,133.4z M739.9,128.9l-0.5,0l0,0.2l0.5,0L739.9,128.9z M739.3,40.9L739.3,40.9l6.9,0
	c0,0,3.1,0,3.1,4.5c0,0,0.3,2.4,0.3,4c0,0-0.2,3.2-0.2,3.5l0.5,7.6c0,0-0.2,1.5-0.2,2.1l0.3,1.4c0,0-0.1,2.9-0.5,2.9
	c0,0,0,0.2,0.3,0.2c0,0,0.3,5.4,0.3,7.4c0,0,0,2.6-0.2,10.4l0.3,1.4c0,0-0.2,7.1-0.2,7.6l0.5,1.9l-0.2,1.1c0,0,0.3,1.9,0.6,2.4
	c0,0-0.4,3.6-0.4,6.4l0,3.6l0.4,1.6c0,0-0.4,1.4-0.6,1.4l0.3,3.1l0,11.6l19.9,0c0,0,1.6,0.6,1.6,3.7l0,5.9c0,0,0,3.1-4,3.1l-0.5,0
	c0,0-0.2,0-0.3-0.2l-0.5,0.3l-0.2,0c0,0-0.2,0-0.3-0.2l-0.6,0.3l-1.2,0l-0.9-0.5l-0.7,0.5l-6.4,0c0,0-1.9,0-2.1-0.2
	c0,0-1.7,0.3-2.9,0.3l-10.9,0c0,0-3.7,0-3.8-2.6l0.5-4c0,0-0.5-0.9-0.5-1.6l0-1.5c0,0,0-0.4,0.2-0.4l-0.3-0.5l0-12.1
	c0,0,0-1-0.3-2.4c0,0,0.2-0.4,0.2-1.9l-0.3-1.6c0,0,0-0.2,0.2-0.7c0,0,0-0.5-0.3-3.2c0,0,0.2-14.7,0.5-14.7c0,0-0.3-2.5-0.3-4.9
	l-0.3-16.1c0,0,0-1.9,0.2-2.1c0,0-0.3-1.9-0.3-3.1l0-10.1c0,0,0-1,0.2-2.4c0,0-0.1-1-0.5-1l0.2-0.6l0-8.1
	C736.1,43.9,736.1,40.9,739.3,40.9z M722,106.7L722,106.7l0.5,0.2l0.2,0l0-0.9l-0.2,0C722.5,106.1,722,106.2,722,106.7z M709,52.8
	l-2.1-0.2c0,0-0.5,0-0.5-0.5c0,0-6.4,0-8.5,3.1c0,0-1.1,2.4-1.1,6.9l0.2,0c0,0,0,1.7-1.7,4c0,0,1.2,0,1.5,1.9c0,0,0,0.5-0.2,0.5
	c0,0,0.3,5,0.3,7.2l0,7.9c0,0,0,1.1,0.3,3c0,0-0.2,0.3-0.2,2l0.2,0l-0.2,0.6c0,0,0.3,2.9,0.3,5c0,0,0,1-1.5,2.4l0,0.2
	c0,0,1.8,1.6,1.8,4.7l-0.2,1.6c0,0,0.6,1.7,0.6,2.4l0,15.6c0,0,0,4.4,2.1,5.8c0,0,2.1,1.4,5.8,1.4c0,0,2,0,3.5-0.6
	c0,0,3.1-1.8,3.1-5l-0.5-38.4l0.2-1.4c0,0-0.5-2.7-0.5-9.7l0-3.5c0,0,0-0.6-0.3-1.1c0,0,0-0.2,0.2-0.3c0,0-0.3-3.1-0.3-4.5l0-3.9
	c0,0,0-3.9-2.4-7.2L709,52.8z M706.6,40.5L706.6,40.5l0.7,0c0,0,5.4,1.2,9,2.6c0,0,7.4,6.6,7.4,11.9c0,0,0,0.5-0.5,0.5
	c0,0-0.5-0.2-0.8-0.2l0,0.2c0,0,2.1,1,2.1,3.5c0,0,0.3,2.5,0.3,5l0,4c0,0,0,1.4-0.5,3.2c0,0,0.3,0.4,0.3,1l-0.2,0
	c0,0,0.8,1.1,0.8,10.9l0,2.1l0.3,3.1c0,0-0.4,0-0.7,0.9c0,0,1,0.9,1,5.5l0,12.5c0,0,0,2.6,0.3,6.6c0,0-0.2,0.7-0.2,3.1
	c0,0,0.3,3.4,0.3,3.5c0,0-1.5,10.4-3.1,10.4c0,0-4,9.8-18.2,9.8l-0.6,0c0,0-7.2,0-11.4-3.5l0,0.4c0,0-1.9,0-6.4-6.4
	c0,0-2.4-4-2.4-10.6l-0.2,0c0,0,0.2-0.5,0.2-0.8c0,0,0-1.4-0.3-5.4c0,0,0.2-1.5,0.2-2.1l-0.2,0c0,0,0-0.2,0.2-0.3l-0.3-3.1l0-0.4
	c0,0,0-1.6,0.2-3.4c0,0-0.5-4.9-0.8-5.6c0,0,0.5-1.4,0.5-5.5l0-14.4l0.2-0.5l0.6,0.2l0.5,0l0-0.7c0,0-1.6-0.7-1.6-6.4l0-1
	c0,0,0-1,0.2-1.4c0,0-0.3-1.9-0.3-2.9l0-0.6c0,0,0-17.9,7.7-22.2C691,44.1,694,40.9,706.6,40.5z M643.4,122.6l0-9.5
	c0,0,0-0.6,0.9-1.6l-0.9-1.2l0.2-1.9l-0.3-1.2c0,0,0.2-2.4,0.6-3c0,0-0.6-1-0.6-1.5l0.9-1.6c0,0-0.9-1.2-0.9-2.1l0-1
	c0,0,0-1,1.4-2.1c0,0-1.6,0-1.6-5.2l0-1.2c0,0,0.1-0.6,0.5-0.6l-0.3-1c0,0,0-0.2-0.3-0.7c0,0,0.2-1.5,0.2-2.1c0,0,0-0.4-0.5-5.2
	l0.5-12.9c0,0-0.5-5.5-0.5-12.1c0,0,0.5-0.3,0.7-0.3l0-0.2c0,0-0.5-1-0.8-1c0,0,0-0.4,0.2-0.4l-0.3-1.7l0-5c0,0,0-0.6-0.3-1.1
	c0,0,0.6-2.9,2.6-2.9l8.6,0c0,0,2.2,0,7.1,0.2l0,0.4l0.5-0.4l12.9,0c0,0,2.9,0,2.9,4l0,1c0,0,0,0.9-0.2,1.4l0.3,1.5l0,1.9
	c0,0-0.5,2.6-2.6,2.6c0,0-2.6-0.2-5-0.2l-10.7,0c0,0-2.6,0-2.6,9.2l0,7.6c0,0,0,1,0.3,2.9c0,0-0.2,0.5-0.2,0.8c0,0,0.3,2,0.3,4.2
	l-1,1.8l0,0.2c0,0,1,0,1.6,1.4l3.4,0c0,0,0.9,0,1.9,0.7c0,0,0-0.7,5.5-1l0.3,0.5l0.3,1c0,0,0.9-1.5,1.2-1.5l0.6,0
	c0,0,2.6,0.4,2.6,2.6c0,0,0,0.5-0.2,0.5l0.3,3.1l0,3.5c0,0-0.2,2.9-2.1,2.9c0,0-0.2,0-0.3-0.2l-3.1,0.3l-4.7,0c0,0,0-0.5-0.3-0.5
	c0,0-1.2,0.8-2.6,0.8l-1.4-0.2c0,0-1.9,0-1.9,1c0,0,0,1.9,0.3,5.7l-0.7,12.6l-0.2,0c0,0,0.8,0.9,0.8,2.1c0,0,0,1-0.2,2.4
	c0,0,0.4,2.7,0.5,3.1c0,0-0.1,0.5-0.5,3.7c0,0,0.5,0.9,0.5,2l0,3.5c0,0,0,0.5-0.2,1l0.3,0.5l-0.2,1.1c0,0,0.6,1.7,0.6,3.1
	c0,0-0.6,1.5-2.1,1.9c0,0-0.2,0.7-1.6,0.8l-2.4,0c0,0-1.4,0-3.6-0.2c0,0-0.5,0.3-0.7,0.3c0,0-0.9-0.5-1.4-0.5l0,0.2
	c0,0-1.9,0-1.9-3.7l0-7.5c0,0,0-0.4,0.9-0.9l1.2,0l0-0.5c0,0-2.1,0-2.1-1c0,0,0.6-1.3,0.6-2.4C644.1,123.1,643.4,123.1,643.4,122.6z
	 M615.1,119l-0.6,0.1l0,0.5l0.1,0.2l0.4,0.1L615.1,119z M614.9,120.8l-0.4,0l0.1,0.9l1.2,0.2l0.1-0.5l-0.5-0.5l-0.3-0.2L614.9,120.8
	z M633,42.3L633,42.3c0,0,2.4,0,2.4,3.6l0,3.7c0,0,0,5-3.1,5l-10.7,0c0,0-0.5,0-0.5,0.5l0,1.7c0,0,0,0.9-0.2,0.9c0,0,0,0.2,0.3,0.7
	c0,0,0.3,6.5,0.3,10.2l0,3.1c0,0,0,1.7-0.2,3.5c0,0,0.3,1,0.3,2.9l0,2.1c0,0-0.5,1.7-0.5,2l0.2,0l0,2.1c0,0,0.5,0,0.5,0.5
	c0,0,0,1.2-0.5,2.2c0,0,0.3,3.1,0.5,3.1c0,0,0,0.2-0.2,0.3c0,0,0.3,1.4,0.3,2c0,0-0.5,14.9-0.5,15.7l0.2,0l-0.2,0.5l0,4.4
	c0,0,0,1.4,0.3,1.7c0,0-0.2,1.4-0.2,1.6c0,0,0.3,10.4,0.3,14.4l0.2,0l-0.2,0.5c0,0,0.3,3.9,0.3,5.9c0,0,0,2.6-3.9,2.6l-2.1,0
	c0,0-2.1,0-5.1,0.3c0,0-2.2-0.6-2.3-2.1l0.2-1.7c0,0-0.3-1.2-0.3-2c0,0,0.5,0,0.5-0.5l0-0.5c0,0-0.8-2.4-0.8-9.1l0-9
	c0,0,0-1-0.3-2.9c0,0,1-2.8,1-3.2l0-0.2c0,0-0.7,0-0.8-1.2l0-23.1c0,0,0-0.6-0.3-1c0,0,0.4-1.4,1.2-2.4l0-0.2c0,0-1.2,0-1.3-2.1
	l0-0.5c0,0,0-0.9,0.2-1.2c0,0-0.6-3.6-0.6-13.7l0-2.4c0,0,0-1,0.4-2.4c0,0-0.4-0.9-0.9-3.6c0,0-2.5,0.3-3.9,0.3l-2.4,0
	c0,0-0.6,0-1.5-0.5c0,0-0.9,0.3-0.9,0.5l-0.5-0.2c0,0-2.5,0.5-2.9,0.5c0,0-2.1,0-2.1-9.2l0-0.5c0,0,0-2.9,4.6-2.9
	C597.3,42.8,626,42.3,633,42.3z M552.1,46.4l0,0.4l0.4,0l0.1-0.3l-0.1-0.2L552.1,46.4z M581.5,52.6l-0.9,0l0.3,0.7l0.6,0.4
	L581.5,52.6z M551.5,48.3l-0.5,0l0,0.5L551.5,48.3z M556.5,54.6l0.1,0.1l0-0.4l-0.2,0l0,0.2L556.5,54.6z M568.8,55.1l-9,0l-0.2,1.6
	c0,0,0.5,3.5,0.5,7.6l0,15.1c0,0,0,2.2,0.4,7.1l0.5,0.4l3.4,0c0,0,7,0,9-3.5c0,0,0-0.5,1.4-0.5l0-0.2c0,0,0-1-0.3-2.4l0.7-1.4
	l-0.5-0.7c0,0,0-0.9,0.2-0.9l-0.3-1.2l0-5.9c0,0,0-2.1-0.3-5.6c0,0,0.5-1,0.5-1.5c0,0-0.5,0-1.9-4.7C573,58.4,570.8,55.1,568.8,55.1
	z M568.8,42.1L568.8,42.1c0,0,12,0,17,10.9c0,0,1.4,4.2,1.9,9.5l0,2.5c0,0,0,0.7,0.3,0.7l-0.2,1.4l0,7.6c0,0,0,13.7-7.7,19.4
	c0,0,0,1-4.5,3.6c0,0,3.1,9,8.8,22c0,0,6.6,16.9,6.6,18.9l0,0.2c0,0,0,1.9-12.4,1.9c0,0-2.1,0-6.1-14c0,0-6.9-18.4-9.5-26.9
	l-0.6-0.2l-1.2,0c0,0-0.2,0-0.9,0.9c0,0,0.4,6.2,0.4,9.2l0,11.6c0,0,0,0.2-0.4,0.3c0,0,0.6,1.2,0.6,3.5l0,6.1c0,0,0,2.7,0.5,7.4
	l-0.7,0.5l0.3,0.5c0,0-0.4,1.1-2.4,1.1l-6.1,0c0,0-1,0-2.4,0.3c0,0-2.4-0.4-2.4-3.1l0-3.7l0.2-1.6c0,0-0.5-1.4-0.5-3.7
	c0,0,0.4,0,0.7-0.8l-0.8-1l0-2.7c0,0,0-1.2-0.4-2.6c0,0,0.4-1,0.4-2.1l-0.4,0l0.4-0.5l0-1c0,0,0-0.4-0.4-0.4c0,0,0.4-1.2,1.1-1.3
	l0-0.5l-1.1,0l0-0.4l0.6-1.8c0,0-0.6,0-0.6-0.6l0.5-6.1c0,0,0-0.2-0.3-0.2c0,0,0-0.2,0.2-0.3c0,0-0.3-3.6-0.3-5.2l0-6.6l-0.3-2.7
	c0,0,0.4,0,0.9-0.8c0,0-0.7,0-0.9-1c0,0,0-1.1,0.2-3c0,0,0-0.2-0.3-0.7c0,0,0-0.2,0.2-1.6l-0.3-9.2l0.2-1.5l0-28.6c0,0,0.5-3,2.9-3
	C549.9,42.4,562,42.1,568.8,42.1z M533,106.9L533,106.9l0.5,0.2l0.2,0l0-0.9l-0.2,0C533.5,106.2,533,106.4,533,106.9z M519.9,53
	l-2.1-0.2c0,0-0.5,0-0.5-0.5c0,0-6.4,0-8.5,3.1c0,0-1.1,2.4-1.1,6.9l0.2,0c0,0,0,1.7-1.7,4c0,0,1.2,0,1.5,1.9c0,0,0,0.5-0.2,0.5
	c0,0,0.3,5,0.3,7.2l0,7.9c0,0,0,1.1,0.3,3c0,0-0.2,0.3-0.2,2l0.2,0l-0.2,0.6c0,0,0.3,2.9,0.3,5c0,0,0,1-1.5,2.4l0,0.2
	c0,0,1.8,1.6,1.8,4.7l-0.2,1.6c0,0,0.6,1.7,0.6,2.4l0,15.6c0,0,0,4.4,2.1,5.8c0,0,2.1,1.4,5.8,1.4c0,0,2,0,3.5-0.6
	c0,0,3.1-1.8,3.1-5l-0.5-38.4l0.2-1.4c0,0-0.5-2.7-0.5-9.7l0-3.5c0,0,0-0.6-0.3-1.1c0,0,0-0.2,0.2-0.3c0,0-0.3-3.1-0.3-4.5l0-3.9
	c0,0,0-3.9-2.4-7.2L519.9,53z M517.5,40.7L517.5,40.7l0.7,0c0,0,5.4,1.2,9,2.6c0,0,7.4,6.6,7.4,11.9c0,0,0,0.5-0.5,0.5
	c0,0-0.5-0.2-0.7-0.2l0,0.2c0,0,2.1,1,2.1,3.5c0,0,0.3,2.5,0.3,5l0,4c0,0,0,1.4-0.5,3.2c0,0,0.3,0.4,0.3,1l-0.2,0
	c0,0,0.8,1.1,0.8,10.9l0,2.1l0.3,3.1c0,0-0.4,0-0.7,0.9c0,0,1,0.9,1,5.5l0,12.5c0,0,0,2.6,0.3,6.6c0,0-0.2,0.7-0.2,3.1
	c0,0,0.3,3.4,0.3,3.5c0,0-1.5,10.4-3.1,10.4c0,0-4,9.8-18.2,9.8l-0.6,0c0,0-7.2,0-11.4-3.5l0,0.4c0,0-1.9,0-6.4-6.4
	c0,0-2.4-4-2.4-10.6l-0.2,0c0,0,0.2-0.5,0.2-0.7c0,0,0-1.4-0.3-5.4c0,0,0.2-1.5,0.2-2.1l-0.2,0c0,0,0-0.2,0.2-0.3l-0.3-3.1l0-0.4
	c0,0,0-1.6,0.2-3.4c0,0-0.5-4.9-0.8-5.6c0,0,0.5-1.4,0.5-5.5l0-14.4l0.2-0.5l0.6,0.2l0.5,0l0-0.7c0,0-1.6-0.7-1.6-6.4l0-1
	c0,0,0-1,0.2-1.4c0,0-0.3-1.9-0.3-2.9l0-0.6c0,0,0-17.9,7.7-22.2C501.9,44.3,504.9,41,517.5,40.7z M474.7,52.8l0.6,0l0.2-0.6l-0.5,0
	L474.7,52.8z M480.6,89.4L480.6,89.4l-0.2,0.5l0.5,0.2l0.2,0l0-0.2C481.1,89.9,481.1,89.4,480.6,89.4z M482.2,54.9l-0.6,0l0,0.5
	l1.1,0C482.7,55.4,482.7,54.9,482.2,54.9z M460.7,54.7l-0.7,0.3l-1.4,0.3l0,4.5c0,0,0,5-0.2,8.4l0.9,14.4l0.5,2.6l0,0.5l1.6,1.7
	c0,0,0-0.5,0.5-0.5l0.7,0c0,0,1.1,0,2.3,1.2c0,0,0-1.5,4-1.9c0,0,4-2,4-7.8c0,0,0-6.2,0.2-6.9c0,0,0-11.9-3.8-15.2
	c0,0-2.4-1.1-4.2-1.1L460.7,54.7z M459.2,42.6L459.2,42.6l4.5,0c0,0,15.4,0,20.1,10c0,0,0.8,1.9,0.8,2.4l0,0.5l-0.2,0l-0.5-0.2
	c0,0-0.6,0.3-0.9,0.3l0,0.5c0,0,3,0,3.5,7.7c0,0,0,0.4-0.2,0.9c0,0,0.4,3.4,0.5,4c0,0-0.2,1.5-0.2,2.4l0,2.7c0,0-0.7,15.2-4.5,18.1
	c0,0,0,2-5.1,5.1c0,0-4.7,2.4-10.1,2.4l-7.2,0c0,0-0.6,0.1-0.6,0.6l0,2.4c0,0,0,1.6-0.2,4c0,0,0.3,2,0.6,2.6c0,0-0.4,1.9-0.4,3
	l0,3.5c0,0-0.5,1.9-0.5,2.1c0,0,1.1,1,1.1,11.5l-0.6,0.3l0.4,1.9l0,1.1l-1.6,7.7c0,0-0.4,0-4.2,0.5l-4.9,0c0,0-3.2-0.1-3.3-3
	l0.2-1.2l-0.3-2.5l0.2-1.9c0,0,0-0.5-0.3-0.5l0.2-3.1l0-6.2c0,0,0-0.9,0.4-2.4l-0.6-1.4c0,0,0.2-0.4,0.2-1c0,0,0-0.4-0.3-0.9
	c0,0,0.2-0.6,0.6-2.6c0,0-0.4-2.6-0.4-4c0,0,0.6-5,0.6-6.5l0-2.1c0,0,0-1-0.6-3.5c0,0,0-1,0.4-1c0,0-0.4-2.7-0.4-4l0-8.6
	c0,0,0-4.7,1.1-4.7l0.2,0l0-0.2c0,0,0-0.6-1.4-0.9l0-1.4c0,0,0-1.5-0.3-1.9l0.6-7.7l-0.9-10.9l0.2-1.4c0,0-0.3-0.9-0.5-0.9
	c0,0,0.5-1,0.5-1.5c0,0-0.3-5-0.3-7.2l-0.2,0c0,0,0.2-1.4,1.9-2.5C446.6,42.9,455.1,42.6,459.2,42.6z"/>
<polygon class="st0" points="120.1,109.6 120.1,107.3 78.1,169.5 79.6,169.5 "/>
<polygon class="st0" points="120.1,79.5 120.1,77.3 57.9,169.5 59.4,169.5 "/>
<polygon class="st0" points="120.1,101 120.1,98.7 72.3,169.5 73.9,169.5 "/>
<polygon class="st0" points="120.1,92.4 120.1,90.1 66.5,169.5 68.1,169.5 "/>
<polygon class="st0" points="120.1,53.8 120.1,51.5 40.5,169.5 42,169.5 "/>
<polygon class="st0" points="120.1,105.3 120.1,103 75.2,169.5 76.7,169.5 "/>
<polygon class="st0" points="120.1,70.9 120.1,68.7 52.1,169.5 53.6,169.5 "/>
<polygon class="st0" points="120.1,62.4 120.1,60.1 46.3,169.5 47.8,169.5 "/>
<polygon class="st0" points="53.5,122.5 52.7,121.3 20.3,169.5 21.8,169.5 "/>
<polygon class="st0" points="120.1,88.1 120.1,85.9 63.7,169.5 65.2,169.5 "/>
<polygon class="st0" points="120.1,45.2 120.1,43 34.7,169.5 36.2,169.5 "/>
<polygon class="st0" points="120.1,36.6 120.1,34.4 28.9,169.5 30.5,169.5 "/>
<polygon class="st0" points="47.7,113.9 46.9,112.8 8.7,169.5 10.2,169.5 "/>
<polygon class="st0" points="120.1,83.8 120.1,81.6 60.8,169.5 62.3,169.5 "/>
<polygon class="st0" points="120.1,75.2 120.1,73 55,169.5 56.5,169.5 "/>
<polygon class="st0" points="120.1,32.3 120.1,30.1 26,169.5 27.6,169.5 "/>
<polygon class="st0" points="120.1,96.7 120.1,94.4 69.4,169.5 71,169.5 "/>
<polygon class="st0" points="120.1,127.6 91.8,169.5 120.1,169.5 "/>
<polygon class="st0" points="120.1,58.1 120.1,55.8 43.4,169.5 44.9,169.5 "/>
<polygon class="st0" points="120.1,49.5 120.1,47.2 37.6,169.5 39.1,169.5 "/>
<polygon class="st0" points="50.6,118.2 49.8,117.1 14.5,169.5 16,169.5 "/>
<polygon class="st0" points="120.1,66.7 120.1,64.4 49.2,169.5 50.7,169.5 "/>
<polygon class="st0" points="120.1,28.1 120.1,25.8 23.1,169.5 24.7,169.5 "/>
<polygon class="st0" points="52,120.3 51.3,119.2 17.4,169.5 18.9,169.5 "/>
<polygon class="st0" points="44.8,109.6 44.1,108.5 2.9,169.5 4.4,169.5 "/>
<polygon class="st0" points="120.1,40.9 120.1,38.7 31.8,169.5 33.3,169.5 "/>
<polygon class="st0" points="49.2,116 48.4,114.9 11.6,169.5 13.1,169.5 "/>
<polygon class="st0" points="46.3,111.8 45.5,110.6 5.8,169.5 7.3,169.5 "/>
<polygon class="st0" points="43.4,107.5 42.6,106.3 0,169.5 1.5,169.5 "/>
<polygon class="st0" points="86.8,169.5 88.3,169.5 120.1,122.4 120.1,120.1 "/>
<polygon class="st0" points="81,169.5 82.5,169.5 120.1,113.8 120.1,111.5 "/>
<polygon class="st0" points="83.9,169.5 85.4,169.5 120.1,118.1 120.1,115.8 "/>
<rect x="186.7" class="st0" width="2.6" height="182.4"/>
</svg>
